<?xml version="1.0" encoding="utf-8"?>
<!-- Generator: Adobe Illustrator 27.9.0, SVG Export Plug-In . SVG Version: 6.00 Build 0)  -->
<svg version="1.1" id="Layer_1" xmlns="http://www.w3.org/2000/svg" xmlns:xlink="http://www.w3.org/1999/xlink" x="0px" y="0px"
	 viewBox="0 0 16 16" style="enable-background:new 0 0 16 16;" xml:space="preserve">
<g id="Rounded_Rectangle_1_copy_2_00000113354651805782063790000008795301397930929824_">
	<g>
		<path style="fill:#17292E;" d="M8,0C3.58,0,0,3.58,0,7.99c0,1.92,0.68,3.68,1.81,5.06c0.36-1.04,1.25-2.31,3.47-3
			C7.5,9.4,8.06,8.36,8.2,7.9L8.07,7.85V5.64l0.81,0.4v2.11L8.75,8.11c-0.12,0.48-0.52,1.43-1.89,2.64
			C5.57,11.89,6,14.28,6.47,15.84c0.49,0.1,1,0.15,1.53,0.15c4.42,0,8-3.58,8-7.99S12.42,0,8,0z M10.22,1.99
			c0-0.02,0.01-0.03,0.03-0.03h0.12c0.02,0,0.03,0.01,0.03,0.03v0.8c0,0.02-0.01,0.03-0.03,0.03h-0.12c-0.02,0-0.03-0.01-0.03-0.03
			V1.99z M11.16,4.24L9.85,3.22c0.12-0.14,0.31-0.2,0.51-0.17c0.31,0.05,0.61,0.29,0.76,0.59C11.22,3.83,11.23,4.05,11.16,4.24z
			 M11.19,2.95c-0.04-0.03-0.05-0.08-0.02-0.12l0.4-0.54c0.03-0.04,0.08-0.05,0.12-0.02c0.04,0.03,0.05,0.08,0.02,0.12l-0.4,0.54
			C11.28,2.97,11.23,2.98,11.19,2.95z M12.28,3.82c0,0.02-0.01,0.03-0.03,0.03h-0.8c-0.02,0-0.03-0.01-0.03-0.03V3.7
			c0-0.02,0.01-0.03,0.03-0.03h0.8c0.02,0,0.03,0.01,0.03,0.03V3.82z"/>
	</g>
</g>
</svg>
